<?xml version="1.0" encoding="UTF-8" standalone="no"?>
<svg
   xmlns:dc="http://purl.org/dc/elements/1.1/"
   xmlns:cc="http://creativecommons.org/ns#"
   xmlns:rdf="http://www.w3.org/1999/02/22-rdf-syntax-ns#"
   xmlns:svg="http://www.w3.org/2000/svg"
   xmlns="http://www.w3.org/2000/svg"
   xmlns:sodipodi="http://sodipodi.sourceforge.net/DTD/sodipodi-0.dtd"
   xmlns:inkscape="http://www.inkscape.org/namespaces/inkscape"
   width="414"
   height="415"
   viewBox="0 0 414 415"
   version="1.1"
   id="svg39"
   sodipodi:docname="night.svg"
   inkscape:version="0.92.3 (2405546, 2018-03-11)">
  <metadata
     id="metadata43">
    <rdf:RDF>
      <cc:Work
         rdf:about="">
        <dc:format>image/svg+xml</dc:format>
        <dc:type
           rdf:resource="http://purl.org/dc/dcmitype/StillImage" />
      </cc:Work>
    </rdf:RDF>
  </metadata>
  <sodipodi:namedview
     pagecolor="#ffffff"
     bordercolor="#666666"
     borderopacity="1"
     objecttolerance="10"
     gridtolerance="10"
     guidetolerance="10"
     inkscape:pageopacity="0"
     inkscape:pageshadow="2"
     inkscape:window-width="1600"
     inkscape:window-height="838"
     id="namedview41"
     showgrid="false"
     inkscape:zoom="0.5686747"
     inkscape:cx="18.55215"
     inkscape:cy="278.22247"
     inkscape:window-x="-8"
     inkscape:window-y="-8"
     inkscape:window-maximized="1"
     inkscape:current-layer="svg39" />
  <defs
     id="defs5">
    <clipPath
       id="clip-night">
      <rect
         width="414"
         height="415"
         id="rect2" />
    </clipPath>
  </defs>
  <g
     id="g936">
    <g
       clip-path="url(#clip-night)"
       id="night">
      <rect
         id="rect7"
         fill="#243046"
         height="415"
         width="414" />
      <path
         opacity="0.06"
         fill="#fff"
         transform="translate(20.001 190.608)"
         d="M178.116,53.739a41.653,41.653,0,0,0-8.258.826,34.058,34.058,0,0,0-47.7-24.214A45.459,45.459,0,0,0,36.7,61.377a37.9,37.9,0,0,0,1.139,75.772h140.28a41.7,41.7,0,1,0,0-83.41Zm0,0"
         id="cloud" />
      <path
         opacity="0.04"
         fill="#fff"
         transform="translate(207.001 83.608)"
         d="M28.765,37.187a28.73,28.73,0,0,1,5.7.569,23.491,23.491,0,0,1,32.9-16.7,31.355,31.355,0,1,1,58.946,21.4,26.138,26.138,0,0,1-.785,52.263H28.765a28.766,28.766,0,1,1,0-57.531Zm0,0"
         data-name="cloud"
         id="cloud-2" />
      <g
         transform="translate(277 20.965)"
         id="moon">
        <path
           fill="#ffeb98"
           d="M31.37,80.21a48.813,48.813,0,0,0,37.4-80.2A54.671,54.671,0,1,1,0,68.776,48.612,48.612,0,0,0,31.37,80.21Z"
           data-name="Path 1"
           id="Path_1" />
        <path
           fill="#efcf6e"
           transform="translate(-33.646 -33.634)"
           d="M119.487,42.776a54.619,54.619,0,0,1-76.7,76.7,54.628,54.628,0,1,0,76.7-76.7Z"
           data-name="Path 2"
           id="Path_2" />
      </g>
      <path
         fill="#333e53"
         transform="translate(287.26 78.608)"
         d="M34.141,44.064a34.1,34.1,0,0,1,6.761.676A27.881,27.881,0,0,1,79.951,24.917a37.215,37.215,0,0,1,69.962,25.4,31.023,31.023,0,0,1-.932,62.03H34.141a34.142,34.142,0,1,1,0-68.283Zm0,0"
         data-name="cloud"
         id="cloud-3" />
      <path
         opacity="0.06"
         fill="#fff"
         transform="translate(-51.999 20.608)"
         d="M124.215,37.595a29.048,29.048,0,0,0-5.759.576A23.751,23.751,0,0,0,85.191,21.284a31.7,31.7,0,0,0-59.6,21.638,26.428,26.428,0,0,0,.794,52.842h97.829a29.084,29.084,0,1,0,0-58.169Zm0,0"
         data-name="cloud"
         id="cloud-4" />
      <g
         opacity="0.92"
         transform="translate(-55 31.992)"
         data-name="Group 1"
         id="Group_1">
        <path
           fill="#fff6d2"
           d="M234.109,82.84l.459.93,1.027.149-.743.724.176,1.022-.918-.482-.918.482.176-1.022-.743-.724,1.027-.149Z"
           data-name="Path 4"
           id="Path_4" />
      </g>
      <g
         opacity="0.51"
         transform="translate(16 -0.008)"
         data-name="Group 2"
         id="Group_2">
        <path
           fill="#fff6d2"
           d="M234.109,82.84l.459.93,1.027.149-.743.724.176,1.022-.918-.482-.918.482.176-1.022-.743-.724,1.027-.149Z"
           data-name="Path 4"
           id="Path_4-2" />
      </g>
      <g
         opacity="0.26"
         transform="translate(-190 52.992)"
         data-name="Group 4"
         id="Group_4">
        <path
           fill="#fff6d2"
           d="M234.109,82.84l.459.93,1.027.149-.743.724.176,1.022-.918-.482-.918.482.176-1.022-.743-.724,1.027-.149Z"
           data-name="Path 4"
           id="Path_4-3" />
      </g>
      <g
         opacity="0.92"
         transform="translate(-190 -67.008)"
         data-name="Group 6"
         id="Group_6">
        <path
           fill="#fff6d2"
           d="M234.109,82.84l.459.93,1.027.149-.743.724.176,1.022-.918-.482-.918.482.176-1.022-.743-.724,1.027-.149Z"
           data-name="Path 4"
           id="Path_4-4" />
      </g>
      <g
         opacity="0.92"
         transform="translate(-3 -58.008)"
         data-name="Group 7"
         id="Group_7">
        <path
           opacity="0.45"
           fill="#fff6d2"
           d="M234.109,82.84l.459.93,1.027.149-.743.724.176,1.022-.918-.482-.918.482.176-1.022-.743-.724,1.027-.149Z"
           data-name="Path 4"
           id="Path_4-5" />
      </g>
      <g
         opacity="0.48"
         transform="translate(-70 102.992)"
         data-name="Group 9"
         id="Group_9">
        <path
           fill="#fff6d2"
           d="M234.109,82.84l.459.93,1.027.149-.743.724.176,1.022-.918-.482-.918.482.176-1.022-.743-.724,1.027-.149Z"
           data-name="Path 4"
           id="Path_4-6" />
      </g>
      <g
         opacity="0.92"
         transform="translate(30 162.992)"
         data-name="Group 10"
         id="Group_10">
        <path
           fill="#fff6d2"
           d="M234.109,82.84l.459.93,1.027.149-.743.724.176,1.022-.918-.482-.918.482.176-1.022-.743-.724,1.027-.149Z"
           data-name="Path 4"
           id="Path_4-7" />
      </g>
      <g
         opacity="0.46"
         transform="translate(70 112.992)"
         data-name="Group 11"
         id="Group_11">
        <path
           fill="#fff6d2"
           d="M234.109,82.84l.459.93,1.027.149-.743.724.176,1.022-.918-.482-.918.482.176-1.022-.743-.724,1.027-.149Z"
           data-name="Path 4"
           id="Path_4-8" />
      </g>
      <g
         opacity="0.92"
         transform="translate(150 232.992)"
         data-name="Group 13"
         id="Group_13">
        <path
           fill="#fff6d2"
           d="M234.109,82.84l.459.93,1.027.149-.743.724.176,1.022-.918-.482-.918.482.176-1.022-.743-.724,1.027-.149Z"
           data-name="Path 4"
           id="Path_4-9" />
      </g>
      <g
         opacity="0.92"
         transform="translate(30 292.992)"
         data-name="Group 14"
         id="Group_14">
        <path
           fill="#fff6d2"
           d="M234.109,82.84l.459.93,1.027.149-.743.724.176,1.022-.918-.482-.918.482.176-1.022-.743-.724,1.027-.149Z"
           data-name="Path 4"
           id="Path_4-10" />
      </g>
      <g
         opacity="0.92"
         transform="translate(-150 272.992)"
         data-name="Group 15"
         id="Group_15">
        <path
           fill="#fff6d2"
           d="M234.109,82.84l.459.93,1.027.149-.743.724.176,1.022-.918-.482-.918.482.176-1.022-.743-.724,1.027-.149Z"
           data-name="Path 4"
           id="Path_4-11" />
      </g>
    </g>
    <g
       style="fill:#b7b7b7;fill-opacity:1;stroke-width:1.83817255"
       transform="matrix(-0.53781936,0.08189338,0.08189338,0.53781936,653.64704,-57.007303)"
       id="g879">
      <path
         sodipodi:nodetypes="ccssscsssssssscsssssscssscsscccsscsccccscccssccssccccccscccsccscssccccsccscccsccssssssccccccscscsssccscsssssssssscsscssscsscsss"
         inkscape:connector-curvature="0"
         id="path893"
         d="m 638.70212,206.67078 c -1.8248,-1.33433 -1.8234,-1.66075 0.0589,-13.75 1.40806,-9.04356 1.90772,-17.23771 1.85268,-30.38323 -0.079,-18.87095 -0.68238,-22.98785 -5.92277,-40.41168 -4.01401,-13.34621 -6.45994,-26.994452 -7.15528,-39.926309 L 626.89161,70.22168 622.05588,66.533906 C 611.7781,58.69597 608.07009,43.711727 613.14821,30.537548 c 7.16886,-18.598216 30.14986,-23.409029 44.33546,-9.281127 5.59077,5.568035 9.34186,13.023361 10.26332,20.398462 1.6598,13.284603 -8.23058,25.508732 -23.80793,29.425696 -2.6125,0.656919 -4.75,1.593928 -4.75,2.08224 0,0.958157 9.81984,7.429138 19.5,12.849919 3.3,1.84796 10.20384,6.20609 15.34186,9.68473 8.75211,5.925512 9.47638,6.230592 11.47251,4.832442 1.17185,-0.820802 3.42111,-1.492362 4.99834,-1.492362 2.30819,0 5.43525,-2.45624 16.02749,-12.58928 18.83975,-18.022988 36.07747,-29.157898 59.14649,-38.206393 8.1461,-3.19519 10.19132,-3.57912 21.25686,-3.99034 11.70985,-0.435164 12.48203,-0.338319 17.71444,2.221658 14.14253,6.919293 20.4223,23.290968 15.91857,41.500465 -1.93861,7.83821 -6.91741,18.950472 -8.81733,19.679542 -0.74662,0.2865 -3.94456,6.45269 -7.10654,13.70263 -3.16198,7.24995 -10.23908,23.30672 -15.7269,35.68172 -5.48781,12.375 -11.55195,26.1 -13.47586,30.5 -1.92391,4.4 -3.9473,8.5625 -4.49642,9.25 -1.32917,1.66412 -2.75351,1.58741 -2.75351,-0.1483 0,-0.76906 7.24713,-17.75656 16.10473,-37.75 8.85761,-19.99343 17.87613,-40.52043 20.04115,-45.61555 3.95391,-9.30502 9.66554,-27.063472 10.55714,-32.823945 0.56149,-3.627753 -4.08597,-17.583458 -6.563,-19.70781 -2.82283,-2.420907 -19.14316,-6.930573 -23.06865,-6.374372 -5.46761,0.774702 -30.06278,9.850145 -34.57137,12.756584 -4.25478,2.742823 -12.37586,7.704016 -15.5367,9.491414 -1.0485,0.592913 -4.28168,3.298145 -7.18484,6.011628 -2.90315,2.713479 -7.29291,6.583419 -9.75501,8.599849 l -4.47655,3.66625 2.72655,2.1447 c 3.4737,2.73242 3.93305,8.871282 0.72655,9.709802 -1.1,0.28766 -2,0.903 -2,1.36743 0,0.46442 -0.97897,1.75646 -2.17549,2.87119 -1.92038,1.7891 -2.02382,2.3102 -0.88206,4.4436 0.7114,1.32925 0.98881,2.90973 0.61648,3.51218 -1.07673,1.74219 -4.70067,1.26933 -5.2104,-0.67988 -0.6819,-2.60759 -8.19095,-2.28048 -11.7403,0.51144 -1.48618,1.16903 -3.91852,2.40999 -5.40519,2.75769 -1.98515,0.46428 -3.30701,1.91531 -4.97711,5.46347 -1.91578,4.0701 -3.14112,5.24181 -7.77734,7.43696 -9.48232,4.48967 -11.75203,3.15883 -10.10547,-5.92532 0.60043,-3.31261 0.62765,-6.17839 0.0699,-7.36382 -0.7939,-1.68743 -9.09348,-9.39802 -22.57843,-20.97612 -2.15935,-1.854012 -4.11525,-3.181772 -4.34644,-2.950592 -0.23118,0.23119 0.59785,4.950102 1.84229,10.486472 1.84899,8.22586 3.2955,11.79694 7.91234,19.53355 3.10734,5.20707 6.39898,10.08924 7.31474,10.84926 7.11596,5.90573 24.86293,31.56237 29.36465,42.45224 1.8189,4.4 3.44146,8.14846 3.60568,8.3299 0.16423,0.18145 1.37421,-0.37486 2.68885,-1.23625 6.52459,-4.27508 20.95511,-7.03874 24.62076,-4.71525 0.73562,0.46628 1.18562,1.92189 1,3.23469 -0.27351,1.93439 -2.80209,3.67827 -13.33749,9.19844 -7.15,3.74633 -14.28922,6.89633 -15.86493,7 -2.73981,0.18024 -3.22022,-0.51187 -11,-15.8471 -4.47429,-8.81956 -9.24069,-17.59456 -10.59199,-19.5 -2.98877,-4.21436 -14.08256,-15.96443 -15.07277,-15.96443 -0.39197,0 -1.01265,4.6125 -1.3793,10.25 -0.84005,12.91654 -2.52141,29.706 -3.2046,32 -0.45727,1.53537 0.25361,1.75293 5.7962,1.77386 8.33356,0.0315 13.47431,1.3052 16.41405,4.06694 2.75835,2.59134 3.23195,7.37726 0.82155,8.30221 -0.86998,0.33385 -8.20897,0.60699 -16.30887,0.60699 -10.87433,0 -15.21607,-0.35756 -16.59625,-1.36677 z m 38.27042,-98.19741 c 0.65821,-0.39353 -19.57803,-13.435822 -20.84683,-13.435822 -0.76589,0 2.37838,3.7906 6.98726,8.423552 8.37247,8.41618 8.38206,8.42213 10.97793,6.80266 1.42897,-0.89149 2.72571,-1.69717 2.88164,-1.79039 z m 31.21649,-1.05083 c 0,-3.16428 -4.88778,0.16894 -4.9682,3.38806 -0.0232,0.92931 0.64324,0.83075 2.4682,-0.36501 1.375,-0.90093 2.5,-2.26131 2.5,-3.02305 z m -9,-0.38499 c 0,-0.55 -0.45,-1 -1,-1 -0.55,0 -1,0.45 -1,1 0,0.55 0.45,1 1,1 0.55,0 1,-0.45 1,-1 z m 7.69721,-7.791712 c 0.74841,-0.47576 0.8707,-1.2894 0.32622,-2.17038 -0.72103,-1.16665 -1.1424,-1.18407 -2.44721,-0.10116 -2.84511,2.36123 -1.04788,4.286032 2.12099,2.27154 z m 22.29222,-22.695552 c 2.48728,-2.996994 0.19005,-2.610302 -3.63442,0.611777 -6.28076,5.291493 -13.35501,12.239515 -13.35501,13.116715 0,0.86844 14.80118,-11.091818 16.98943,-13.728492 z m 16.40623,-10.635478 c 4.23071,-2.817507 7.49103,-5.323899 7.24517,-5.569761 -1.02441,-1.024411 -16.64083,8.196125 -16.64083,9.825387 0,1.635932 1.71634,0.858543 9.39566,-4.255626 z M 644.7848,60.56495 c 4.90071,-1.455355 9.9441,-5.64783 12.28424,-10.211661 2.99537,-5.841709 -0.0156,-16.342507 -6.36402,-22.194233 -14.60965,-13.466711 -35.18654,2.32629 -28.18387,21.631453 2.22715,6.139863 9.66903,12.102547 15.23638,12.207897 1.13767,0.02153 4.29995,-0.623527 7.02727,-1.433456 z m 126.40423,-6.289744 c 12.05672,-3.529211 11.70595,-3.393765 10.22138,-3.946957 -2.84258,-1.059222 -22.22138,4.947778 -22.22138,6.888137 0,0.602651 0.73116,0.724245 1.75,0.291029 0.9625,-0.409261 5.575,-1.863755 10.25,-3.232209 z m 36,0.282666 c 0,-1.14144 -8.37661,-4.610206 -12.4968,-5.17494 -7.2257,-0.990391 -5.24641,1.065749 3.2468,3.372868 8.72644,2.370476 9.25,2.472474 9.25,1.802072 z m -79.81641,7.764885 c 0.4637,-2.407808 10.85241,-10.535471 18.70054,-14.630467 11.85377,-6.185059 33.00619,-11.654742 45.07135,-11.654742 4.41833,0 6.14017,0.44821 7.50178,1.952775 1.70307,1.881864 1.68146,1.970727 -0.59501,2.447152 -1.29924,0.271907 -6.86225,0.700063 -12.36225,0.951457 -17.08579,0.780956 -32.04408,5.922403 -47.65587,16.380219 -8.95829,6.000863 -11.11682,6.922869 -10.66054,4.553606 z m 13.81641,-16.051234 c 0,-1.255694 10.03788,-7.440518 15.35461,-9.460715 4.90351,-1.863186 9.50618,-2.058024 9.92648,-0.420202 0.1204,0.469183 -3.38109,2.076154 -7.78109,3.571048 -4.4,1.494894 -9.575,3.696835 -11.5,4.893203 -3.56881,2.217982 -6,2.792011 -6,1.416666 z"
         style="fill:#b7b7b7;fill-opacity:1;stroke-width:1.83817255" />
      <path
         sodipodi:nodetypes="ccsscsssssssssccccssssccsccscscsscsccsccsscccscscscccsscsccccccsssscsccsscsscsscsccsccsccccccccscccsccsscssscssccscsccccccsssssscscccccsccssc"
         inkscape:connector-curvature="0"
         id="path891"
         d="m 638.52134,205.46116 c -0.3432,-0.89437 0.1076,-6.86807 1.00177,-13.27487 3.65218,-26.16796 2.85746,-48.85408 -2.2302,-63.66349 -5.05804,-14.72322 -9.10388,-37.037762 -9.10388,-50.211827 v -7.581855 l -5.85746,-5.300697 c -9.80299,-8.871198 -12.96494,-19.63132 -9.32962,-31.748749 3.65762,-12.191791 10.95256,-18.452253 22.58978,-19.386377 12.54651,-1.007113 22.69299,5.312634 28.48874,17.744253 3.84325,8.243597 3.68876,17.906335 -0.39144,24.483718 -3.6085,5.816982 -10.59186,10.839469 -18.31458,13.171972 -3.12698,0.944447 -6.13542,2.114585 -6.68542,2.600307 -1.43436,1.266728 2.45529,4.348439 14.06272,11.14167 5.46551,3.198683 14.61112,8.916543 20.32359,12.706373 l 10.38631,6.890592 3.11369,-1.83104 c 1.71253,-1.00708 3.95978,-1.636592 4.99389,-1.398922 1.31522,0.302282 4.3201,-1.94562 10,-7.48081 20.38638,-19.867026 32.07094,-28.373009 51.84083,-37.738454 16.58999,-7.859056 22.89485,-9.545406 35.68796,-9.545406 9.50434,0 11.27799,0.288862 15.8923,2.588266 13.29072,6.623047 19.10233,22.413554 14.70399,39.951634 -2.21769,8.84286 -7.59353,19.447262 -9.86227,19.454322 -1.36997,0.004 -1.673,-0.45318 -1.15545,-1.74422 0.38585,-0.9625 1.27093,-3.55 1.96685,-5.750002 0.69592,-2.2 1.9446,-5.575 2.77484,-7.5 3.57696,-8.293501 3.92206,-14.01719 1.23143,-20.423609 -0.65061,-1.549097 -0.47965,-1.797649 0.87808,-1.276639 1.40963,0.540927 1.57899,0.200595 1.03327,-2.076392 -1.12836,-4.707952 -3.42394,-8.417418 -4.86651,-7.863852 -1.72577,0.662239 -3.9311,-1.946226 -3.97323,-4.699532 -0.0474,-3.098334 -7.06651,-6.653506 -13.68973,-6.933844 -4.75127,-0.201105 -5.34256,-0.0048 -5.34256,1.773868 0,2.96092 -4.45789,3.377044 -5.21373,0.486679 -0.51272,-1.960627 -1.00615,-2.105815 -5.08031,-1.494856 -5.43287,0.814709 -18.09497,4.997185 -19.55811,6.46033 -0.67113,0.671122 -0.70192,1.39378 -0.0857,2.010048 0.61627,0.616268 3.29471,0.128238 7.45,-1.357441 8.60671,-3.077235 13.2704,-3.952555 12.75059,-2.393139 -0.3718,1.115403 -20.76747,8.720187 -23.51279,8.767044 -0.6875,0.01173 -1.25,-0.627107 -1.25,-1.419648 0,-2.85714 -2.15536,-2.644265 -8.36025,0.825705 -9.52076,5.324314 -11.3703,7.03009 -9.74544,8.987927 0.73119,0.881035 1.06822,2.282612 0.74895,3.114616 -0.77069,2.008393 -4.30812,1.934006 -5.45464,-0.114704 -1.17681,-2.10285 -2.09265,-1.564198 -12.1162,7.126223 -8.05625,6.984766 -9.39975,9.054646 -6.57954,10.136856 0.96595,0.37067 1.29734,1.352 0.93887,2.78025 -0.42319,1.68612 0.0508,2.48293 2.00712,3.3743 2.04239,0.93058 2.56113,1.88018 2.56113,4.688372 0,2.14087 -0.49006,3.52851 -1.25,3.53947 -0.6875,0.01 -2.70021,1.76501 -4.47269,3.90021 -2.77184,3.33908 -3.01667,4.05319 -1.75,5.10442 2.11083,1.7518 1.81577,3.97734 -0.52726,3.97734 -1.27752,0 -2,-0.66667 -2,-1.8455 0,-2.79508 -8.7537,-2.28 -12.59437,0.74107 -1.5689,1.2341 -4.12104,2.49751 -5.67143,2.80759 -2.03974,0.40795 -3.23234,1.55328 -4.31468,4.14371 -2.05191,4.9109 -4.04428,6.89356 -9.23447,9.18942 -4.81897,2.13166 -7.74393,2.48647 -8.6334,1.04728 -0.31151,-0.50403 -0.0757,-3.20442 0.52403,-6.00085 0.63439,-2.95807 0.74203,-6.11877 0.25737,-7.55767 -0.76839,-2.28127 -26.88726,-26.517442 -28.58305,-26.522722 -1.08888,-0.003 -0.92453,1.51274 1.21067,11.167992 2.74541,12.41461 9.16252,24.4542 19.09725,35.82968 13.22939,15.14792 24.53441,32.49288 27.53754,42.25 0.97338,3.1625 2.08093,5.75 2.46121,5.75 0.38028,0 2.66335,-1.10213 5.07349,-2.44918 4.24012,-2.36985 14.53758,-5.55082 17.96915,-5.55082 0.92352,0 2.74147,0.87097 4.03991,1.93549 2.09815,1.72017 2.19391,2.1021 0.86078,3.4332 -2.22223,2.21884 -26.78568,14.63131 -28.95439,14.63131 -1.40849,0 -3.87286,-3.98264 -10.05514,-16.25 -4.50416,-8.9375 -10.04043,-18.725 -12.30283,-21.75 -4.15393,-5.55414 -13.40937,-15 -14.69761,-15 -0.38378,0 -1.00486,5.7375 -1.38017,12.75 -0.55937,10.45141 -1.56835,21.59663 -2.9196,32.25 -0.15267,1.20363 1.64597,1.61605 9.10341,2.08736 10.85359,0.68594 14.70633,2.65616 14.70633,7.52056 v 2.89208 l -16.27184,0.27488 c -14.26321,0.24094 -16.34887,0.0741 -16.89585,-1.35127 z m 39.52205,-94.05541 c 2.21886,2.00804 3.14564,2.06884 3.14564,0.20639 0,-0.78398 -4.1625,-4.32312 -9.25,-7.86477 -9.50895,-6.619612 -19.77622,-12.335792 -19.71605,-10.976672 0.0187,0.42177 4.25517,5.18995 9.41444,10.595962 l 9.3805,9.82911 2.61118,-1.71091 c 2.41675,-1.58351 2.74544,-1.5894 4.41429,-0.0791 z m 30.93711,-4.21251 c -0.56504,-2.93398 -3.57729,-2.47054 -5.2745,0.81149 -0.87929,1.70036 -1.32372,3.53649 -0.98763,4.08029 0.92095,1.49012 6.632,-2.97118 6.26213,-4.89178 z m -10.14598,-1.93877 c -1.42934,-1.42934 -1.63087,-1.4186 -2.22062,0.11827 -0.35674,0.92966 -0.0696,2.38798 0.63814,3.24073 1.1576,1.39482 1.3805,1.38295 2.22063,-0.11827 0.6549,-1.17024 0.46427,-2.13831 -0.63815,-3.24073 z m 8.87563,-5.608712 c 1.61719,-1.18252 1.7027,-1.6336 0.56869,-3 -0.73409,-0.88451 -1.93877,-1.60821 -2.67707,-1.60821 -1.35704,0 -3.41274,2.9722 -3.41274,4.93426 0,1.513362 3.26964,1.320282 5.52112,-0.32605 z M 649.66419,59.089329 c 9.1989,-5.108297 11.80291,-14.767724 6.66768,-24.733389 -5.49494,-10.663755 -15.17591,-14.757749 -24.68421,-10.438728 -10.89504,4.948928 -14.56073,18.444909 -8.0346,29.580924 5.63403,9.613731 15.13531,11.652932 26.05113,5.591193 z m 69.94148,27.406569 c 2.15415,-1.90212 4.17915,-3.189495 4.5,-2.86083 0.70395,0.7211 -5.90689,6.4199 -7.37887,6.36085 -0.57077,-0.0229 0.72472,-1.5979 2.87887,-3.50002 z m 8.54285,-7.382656 c 1.14203,-2.133896 3.04051,-2.827524 3.04051,-1.110878 0,0.530649 -0.93406,1.464711 -2.07569,2.075694 -1.89908,1.016354 -1.98117,0.934259 -0.96482,-0.964816 z m 19.2667,-12.649355 c 0.94941,-0.99401 2.00045,-1.533036 2.33565,-1.197835 0.3352,0.3352 -0.44159,1.148481 -1.72619,1.807291 -2.23286,1.145119 -2.25968,1.118297 -0.60946,-0.609456 z m -15.22619,-7.283293 c 0,-1.235819 6.11268,-6.030383 12.12254,-9.508482 5.53012,-3.200459 19.85375,-8.170706 25.98262,-9.015871 3.30698,-0.456031 2.29083,0.09279 -4.10516,2.21718 -9.00848,2.992116 -20.86917,8.653222 -27.5,13.12575 -5.8292,3.931829 -6.5,4.260149 -6.5,3.181423 z m 67.5,-3.606931 c -3.86206,-1.768408 -2.0657,-1.794358 2.5,-0.03611 1.925,0.741314 2.825,1.361782 2,1.378818 -0.825,0.01704 -2.85,-0.587181 -4.5,-1.342703 z m -22.75,-16.198396 c 0.6875,-0.277412 1.8125,-0.277412 2.5,0 0.6875,0.277413 0.125,0.504386 -1.25,0.504386 -1.375,0 -1.9375,-0.226973 -1.25,-0.504386 z m 6.30215,-0.260417 c -1.15359,-0.748869 -0.93688,-1.068128 1.06628,-1.570889 3.58684,-0.90024 12.38157,-0.194487 12.38157,0.993587 0,1.303618 -11.56425,1.80006 -13.44785,0.577302 z"
         style="fill:#b7b7b7;fill-opacity:1;stroke-width:1.83817255" />
      <path
         sodipodi:nodetypes="ccsssscssssccsscccsssssscscscsscsscscscccccsccsscscssscscssssssscscsssccccccscscccccccccscccccccssssssssssccsccccccssc"
         inkscape:connector-curvature="0"
         id="path889"
         d="m 641.52358,206.35191 c -1.191,-0.23722 -2.36945,-0.96749 -2.6188,-1.62283 -0.24934,-0.65534 0.3739,-7.26653 1.38497,-14.69153 2.06907,-15.19462 2.42426,-34.98714 0.83764,-46.67764 -0.5839,-4.3023 -2.37978,-11.9774 -3.99085,-17.05578 -4.25563,-13.41448 -7.76628,-32.065812 -8.54691,-45.407837 l -0.68111,-11.641255 -4.60981,-3.441547 c -17.7301,-13.236746 -13.24974,-44.368144 7.23696,-50.285352 16.29485,-4.706472 32.20267,6.313995 35.69488,24.728367 1.28982,6.801175 -0.71365,13.86973 -5.52401,19.489548 -3.6355,4.247264 -14.12679,10.278966 -17.92723,10.306807 -1.14966,0.0084 -2.69706,0.399844 -3.43867,0.869827 -3.10991,1.970834 -0.31588,4.765792 12.3584,12.362507 7.14449,4.282273 17.1891,10.553793 22.32135,13.936703 l 9.33136,6.150752 2.93059,-1.73115 c 1.66098,-0.98116 3.78007,-1.46152 4.89142,-1.1088 1.54176,0.48934 5.01216,-2.298972 16.23805,-13.046542 8.19059,-7.8416 18.11408,-16.217435 23.27722,-19.646935 11.42269,-7.587264 30.4504,-16.857895 41.7456,-20.339173 7.62652,-2.350563 9.99375,-2.640984 18.5,-2.269659 11.30609,0.493548 15.74645,2.288749 21.54989,8.712465 6.9436,7.685744 8.96853,15.466035 7.17889,27.583137 -0.70248,4.756255 -1.51264,8.883155 -1.80037,9.170875 -0.28772,0.28773 -0.45881,-4.80541 -0.38018,-11.31809 0.12115,-10.035251 -0.16253,-12.451295 -1.85999,-15.84123 -1.28791,-2.572047 -2.58841,-3.901286 -3.64298,-3.72348 -1.88686,0.318134 -3.19992,-1.397249 -3.25365,-4.250564 -0.0546,-2.900581 -7.45254,-6.617257 -14.43098,-7.25004 -5.3036,-0.480914 -5.85563,-0.342218 -6.3632,1.598743 -0.71018,2.715745 -3.34424,2.7583 -4.04845,0.06541 -0.46861,-1.791943 -1.03669,-1.970478 -4.36663,-1.372311 -5.94716,1.068304 -18.64994,5.215987 -20.80845,6.79433 -1.6289,1.191081 -1.73356,1.675069 -0.64566,2.9859 0.71409,0.860424 1.00804,2.034119 0.65323,2.608212 -0.95487,1.54501 -3.50467,1.265759 -4.16544,-0.456195 -0.93748,-2.443028 -3.91718,-1.747327 -11.09402,2.590235 -8.35823,5.051579 -9.57641,6.436896 -7.9578,9.049615 0.95796,1.546309 0.89751,2.105232 -0.30981,2.864461 -1.09018,0.685568 -1.95104,0.350932 -3.15086,-1.224816 l -1.65087,-2.168101 -3.34913,2.574498 c -6.49354,4.991607 -16.84914,15.007073 -16.84914,16.295703 0,0.71743 0.68605,1.56769 1.52456,1.88945 1.04151,0.39966 1.33415,1.3437 0.92362,2.97941 -0.49479,1.97137 -0.14579,2.50862 1.97543,3.04101 2.03911,0.51178 2.57639,1.26095 2.57639,3.592402 0,1.92231 -0.69487,3.31764 -2,4.01613 -1.1,0.5887 -2,1.48408 -2,1.98973 0,3.3467 -9.44477,8.46012 -12.48438,6.75907 -1.35335,-0.75737 -2.28706,-0.3964 -4.13797,1.59972 -1.31464,1.41778 -4.07492,3.04467 -6.13395,3.6153 -3.17996,0.88128 -4.07496,1.79486 -5.94356,6.06693 -1.76732,4.04052 -2.94704,5.32723 -6,6.54415 -2.09008,0.83311 -4.76973,1.99765 -5.95479,2.58787 -3.99449,1.98946 -5.62127,-1.67665 -3.37067,-7.59617 1.55607,-4.09279 -0.79725,-8.80512 -7.10491,-14.22701 -3.09663,-2.66178 -9.39663,-8.20164 -14,-12.31081 -9.74439,-8.698272 -10.10363,-8.442722 -7.32421,5.21016 2.38026,11.69211 9.83278,25.97032 18.40456,35.26106 10.91605,11.83163 24.25362,31.67211 27.4685,40.86109 3.15532,9.01877 3.18517,9.0469 7.05947,6.65245 10.36365,-6.40509 27.56086,-8.14612 23.99979,-2.42972 -1.31486,2.11068 -27.34949,15.67942 -28.92466,15.07497 -0.65536,-0.25148 -4.7144,-7.4789 -9.0201,-16.06093 -4.3057,-8.58203 -9.73667,-18.18988 -12.06884,-21.35077 -4.51929,-6.12522 -15.11432,-16.93039 -15.86502,-16.17969 -0.24762,0.24762 -0.93685,7.64626 -1.53163,16.44141 -0.59478,8.79515 -1.56493,19.29207 -2.15589,23.32649 -0.59096,4.03441 -0.87368,7.5361 -0.62825,7.78152 0.24542,0.24542 3.99453,0.60297 8.33136,0.79455 4.33683,0.19159 9.52929,1.03632 11.53879,1.8772 3.64409,1.52486 5.84694,5.11086 4.1698,6.78799 -0.92549,0.92549 -26.29872,1.97278 -29.98889,1.2378 z m 39.62167,-94.56436 c -0.0326,-1.67364 -2.30412,-3.83768 -8.86765,-8.44794 -9.33166,-6.554622 -20.85041,-12.873562 -21.77736,-11.946602 -0.30409,0.30408 4.2036,5.411 10.01707,11.348712 9.65935,9.86577 10.74547,10.68814 12.60727,9.54583 2.72147,-1.66977 4.72481,-1.57747 5.42608,0.25 0.88022,2.29382 2.6439,1.78401 2.59459,-0.75 z m 26.54378,-1.18771 c 2.49188,-2.01659 2.81247,-2.73558 1.89282,-4.24504 -1.84353,-3.02583 -4.02847,-2.64284 -6.34973,1.11302 -3.48058,5.6317 -0.88546,7.45538 4.45691,3.13202 z m -7.66534,-3.68674 c -0.39853,-2.80461 -3.31005,-3.68504 -4.23294,-1.28002 -0.78388,2.04273 2.31385,5.8889 3.65932,4.54343 0.49956,-0.49956 0.75769,-1.96809 0.57362,-3.26341 z m 9.13359,-7.486842 c 1.28536,-1.22267 1.19162,-1.67328 -0.75252,-3.61743 l -2.22078,-2.22077 -2.66746,2.66746 c -2.26444,2.26443 -2.46936,2.90616 -1.35629,4.247322 1.4391,1.73402 4.54468,1.25619 6.99705,-1.076582 z m -61.96825,-38.47274 c 11.82426,-5.36061 15.22198,-15.254949 9.25,-26.93651 -3.93087,-7.689032 -8.79332,-11.246474 -16.09391,-11.77455 -14.1512,-1.023606 -23.79163,11.557273 -19.62007,25.604439 3.79974,12.795105 14.95965,18.32219 26.46398,13.106621 z m 62,56.584032 c 0,-0.825 0.45,-1.5 1,-1.5 0.55,0 1,0.675 1,1.5 0,0.825 -0.45,1.5 -1,1.5 -0.55,0 -1,-0.675 -1,-1.5 z m 101.02006,-13.02417 c 0.69572,-0.83829 1.47088,-1.31823 1.72258,-1.06653 0.69349,0.6935 -0.71555,2.5907 -1.9241,2.5907 -0.6631,0 -0.58723,-0.57378 0.20152,-1.52417 z m 1.68833,-3.10077 c -1.15446,-1.15447 -0.86009,-1.909162 2.29161,-5.875062 1.65,-2.07626 2.97967,-3.37563 2.95481,-2.8875 -0.0986,1.93712 -4.58265,9.426332 -5.24642,8.762562 z M 762.68898,59.037635 c 0.53206,-0.860901 6.84781,-2.981923 8.91672,-2.99451 1.90521,-0.01159 -0.3879,1.1815 -4.85444,2.525731 -2.54903,0.767146 -4.37706,0.978096 -4.06228,0.468779 z"
         style="fill:#b7b7b7;fill-opacity:1;stroke-width:1.83817255" />
      <path
         inkscape:connector-curvature="0"
         id="path887"
         d="m 639.54562,204.52442 c -0.31936,-0.83223 0.12573,-6.56973 0.98908,-12.75 3.35228,-23.99717 2.98603,-45.01487 -1.02686,-58.92811 -7.68919,-26.65943 -10.31881,-40.547172 -10.31881,-54.496374 v -7.930938 l -5.63511,-4.864999 c -9.97335,-8.610366 -13.22384,-19.5624 -9.50735,-32.033547 3.48852,-11.706122 11.94605,-18.416736 23.26673,-18.460942 7.66093,-0.02991 13.54853,2.257621 18.70992,7.269445 5.63789,5.474527 9.04614,12.270262 9.80759,19.55547 0.78938,7.552392 -0.78592,12.269305 -5.97912,17.903271 -4.67745,5.074431 -10.01796,8.108798 -17.16266,9.75147 -4.26823,0.981329 -5,1.496046 -5,3.516928 0,1.967876 2.10931,3.619249 12.5,9.786205 6.875,4.080369 17.1504,10.531819 22.83423,14.336549 l 10.33423,6.917702 3.16577,-1.86323 c 1.74117,-1.02477 3.95355,-1.68 4.9164,-1.45605 1.17276,0.27277 6.34267,-3.870882 15.66196,-12.552922 15.98039,-14.887678 22.27893,-19.597422 37.5644,-28.088839 11.60133,-6.444795 14.26664,-7.355957 12.64299,-4.322138 -0.60291,1.126536 -0.5976,2.406227 0.0145,3.5 0.7171,1.281376 0.59439,1.724177 -0.4778,1.724177 -0.79349,0 -1.70172,-0.675 -2.01831,-1.5 -0.97569,-2.542607 -3.89405,-1.701813 -12.52131,3.60745 -8.21835,5.057618 -8.29312,5.140549 -7.66288,8.5 0.63391,3.379057 -0.70848,4.77819 -1.81581,1.89255 -0.31658,-0.825 -1.39806,-1.5 -2.4033,-1.5 -2.23995,0 -21.23507,16.54822 -21.23507,18.49963 0,0.77054 0.7875,1.84532 1.75,2.3884 1.44429,0.81492 1.52076,1.21665 0.43772,2.29969 -1.08304,1.08304 -1.48477,1.00657 -2.29969,-0.43772 -1.33985,-2.37463 -3.11758,-2.19901 -5.71372,0.56445 -2.50446,2.66588 -2.77382,4.943112 -0.78039,6.597512 1.07182,0.88954 2.23298,0.75674 5.02506,-0.57472 3.51248,-1.674982 3.69688,-1.665822 5.64294,0.28024 1.81062,1.81061 1.87309,2.27917 0.62471,4.68544 -1.40903,2.7159 -5.80965,6.71536 -7.34436,6.67484 -0.46325,-0.0122 0.23458,-0.8502 1.55073,-1.86216 1.83622,-1.41183 2.2454,-2.42802 1.75863,-4.36747 -0.9404,-3.74687 -3.47941,-4.23679 -5.91437,-1.14124 l -2.06185,2.62122 -1.36964,-2.61406 c -1.52197,-2.90477 -2.33502,-3.1848 -4.10577,-1.41405 -1.64363,1.64363 -1.50618,4.301 0.3,5.8 3.21873,2.6713 0.27792,7.29803 -6,9.43971 -3.21194,1.09573 -4.49254,2.31967 -6.5,6.21243 -2.60634,5.05408 -7.48306,8.33322 -12.9113,8.68168 -2.06933,0.13284 -2.52489,-0.23508 -2.27066,-1.83382 0.17492,-1.1 0.39992,-4.41954 0.5,-7.37676 0.18184,-5.37317 0.17796,-5.3804 -5.81804,-10.8428 -16.98138,-15.470152 -23.97538,-21.205062 -24.82475,-20.355682 -0.55192,0.55191 -0.0845,4.9392 1.18015,11.075872 2.35184,11.41268 8.34576,24.08255 15.5076,32.77973 2.27535,2.76314 6.66868,8.10543 9.76297,11.87176 9.4952,11.55748 18.57474,25.92996 20.92439,33.12232 1.20844,3.69906 2.55488,7.11647 2.99208,7.59424 0.43721,0.47778 3.54526,-0.50567 6.90677,-2.18544 7.90119,-3.94827 16.4258,-5.78903 19.76446,-4.26784 1.34389,0.61232 2.27549,1.61713 2.07023,2.23291 -0.59122,1.77365 -27.42412,15.20373 -29.09531,14.56243 -0.82672,-0.31724 -4.31401,-6.34444 -7.74954,-13.39377 -8.26384,-16.95654 -15.62739,-27.98882 -23.15948,-34.6982 -3.3933,-3.02265 -6.4626,-5.31467 -6.82066,-5.09337 -0.35807,0.22129 -0.95612,6.60611 -1.329,14.18848 -0.37288,7.58236 -1.14252,17.61112 -1.7103,22.28612 -0.56779,4.675 -1.11948,9.4 -1.22598,10.5 -0.17821,1.84068 0.57476,2.04515 9.45227,2.56678 10.90962,0.64103 14.8541,2.35549 14.8541,6.45627 v 2.47695 h -15.53139 c -12.94309,0 -15.62814,-0.25216 -16.11202,-1.51313 z m 42.15864,-91.53486 c 0.89928,-2.83337 -0.14724,-3.83686 -12.85255,-12.32418 -10.67423,-7.130542 -18.43075,-11.193092 -19.44128,-10.182572 -0.52138,0.52139 20.70489,23.554742 21.70676,23.554742 0.34475,0 1.7057,-0.75567 3.02432,-1.67927 2.28952,-1.60364 2.46267,-1.58112 3.84448,0.5 1.80815,2.72321 2.88357,2.76119 3.71827,0.13128 z m -32.36388,-52.5626 c 11.05384,-5.520859 13.63285,-16.187088 6.80468,-28.142762 -3.69337,-6.46685 -9.30707,-10.386918 -15.73061,-10.984746 -3.81195,-0.354771 -5.78198,0.115648 -10.19107,2.4335 -4.47245,2.351157 -5.98911,3.866497 -8.34622,8.338941 -2.46151,4.670554 -2.80995,6.276283 -2.39527,11.038047 0.86691,9.954689 6.49383,17.491371 14.70714,19.69872 4.59491,1.234894 9.43289,0.474393 15.15135,-2.3817 z m 168.84865,18.669605 c 0,-1.132459 0.45,-2.059017 1,-2.059017 0.55,0 1,0.648442 1,1.440983 0,0.792541 -0.45,1.719098 -1,2.059017 -0.55,0.339919 -1,-0.308524 -1,-1.440983 z m -1.07664,-13.281187 c -1.88972,-4.841566 -2.97324,-6.33626 -4.92046,-6.787703 -1.3734,-0.318409 -2.54236,-1.233946 -2.59768,-2.034527 -0.0553,-0.80058 -0.16913,-2.010519 -0.25291,-2.688754 -0.25461,-2.061367 -10.08763,-6.404676 -15.84515,-6.998905 -4.93534,-0.509372 -5.46824,-0.367986 -5.97933,1.586424 -0.65312,2.497562 -1.86698,2.788963 -2.68946,0.645635 -0.76352,-1.98972 -4.51906,-1.873448 -13.63837,0.422249 -4.125,1.038428 -7.62328,1.769958 -7.77395,1.625622 -0.15067,-0.144335 2.54933,-1.328039 6,-2.630452 6.51262,-2.458105 23.11128,-3.827122 30.22387,-2.492791 8.22847,1.543669 15.99385,9.754022 19.15274,20.250233 2.0388,6.774406 1.1243,6.285906 -1.6793,-0.897031 z"
         style="fill:#b7b7b7;fill-opacity:1;stroke-width:1.83817255" />
      <path
         inkscape:connector-curvature="0"
         id="path885"
         d="m 640.37682,204.76382 c -0.80647,-0.97173 -0.65901,-3.98153 0.55243,-11.27591 1.15235,-6.93862 1.65046,-16.0039 1.64567,-29.95036 -0.007,-21.11159 -0.46057,-24.3792 -5.88402,-42.41168 -3.99635,-13.28749 -6.37124,-26.587222 -7.11508,-39.84549 l -0.68768,-12.257168 -4.76905,-3.636925 c -5.79858,-4.422052 -9.5281,-10.964929 -10.77431,-18.901853 -0.77522,-4.937342 -0.59628,-7.050326 1.05408,-12.446886 2.40779,-7.873312 5.48063,-12.151249 11.07406,-15.417045 9.7089,-5.668677 22.35744,-3.994257 30.37241,4.020717 8.10838,8.108371 11.84586,20.024702 8.8848,28.327657 -3.22274,9.036709 -9.78235,14.570228 -21.31724,17.982688 -4.76811,1.410587 -5.77127,2.101814 -6.00782,4.139659 -0.30885,2.660757 2.04984,4.371845 21.73976,15.770934 5.20069,3.01084 12.51482,7.657 16.25362,10.32482 3.73879,2.667812 7.26202,4.850572 7.82938,4.850572 0.56736,0 2.1187,-0.71232 3.44742,-1.58293 1.42431,-0.93324 3.26236,-1.31425 4.47834,-0.92832 1.66504,0.52847 4.58267,-1.719812 15.14054,-11.667072 12.46202,-11.741277 26.6851,-23.364813 27.54186,-22.508051 1.05522,1.055216 -1.06615,3.523153 -3.46089,4.026293 -3.31407,0.696295 -20.03689,15.137498 -21.26273,18.361698 -0.49133,1.2923 -1.68758,2.63279 -2.65833,2.97888 -2.11069,0.75248 -6.17839,5.33199 -6.22905,7.0128 -0.0198,0.656312 0.95821,1.889642 2.17331,2.740732 1.70346,1.19314 1.93782,1.81888 1.02363,2.73307 -0.91419,0.91419 -1.60974,0.80184 -3.03801,-0.49073 -4.20533,-3.80577 -7.77002,-0.61286 -4.84465,4.33939 0.90737,1.53605 1.64976,3.47823 1.64976,4.31595 0,2.01151 -4.35521,5.36776 -8.0059,6.16959 -2.30699,0.5067 -3.41768,1.74416 -5.34605,5.95627 -2.05493,4.48857 -3.03483,5.50886 -6.29106,6.55037 -2.12134,0.67852 -4.28449,1.6293 -4.80699,2.11286 -3.04457,2.81766 -4.63641,-1.13313 -2.60711,-6.47059 1.53961,-4.04948 -0.46545,-9.01753 -5.21065,-12.91077 -2.32773,-1.9098 -8.73224,-7.571 -14.23224,-12.58044 -5.5,-5.009432 -10.5625,-9.119532 -11.25,-9.133532 -1.74812,-0.0356 -1.53599,3.98513 0.75757,14.359492 2.84046,12.8481 9.46707,24.72907 21.53755,38.61504 9.88938,11.37683 21.07843,28.57906 24.25338,37.28757 1.5287,4.19305 3.06409,7.90835 3.41197,8.25624 0.34789,0.34788 2.58035,-0.48142 4.96102,-1.84289 9.06414,-5.18363 22.32851,-7.47082 22.32851,-3.85014 0,1.22579 -25.25142,15.14922 -27.4745,15.14922 -0.51831,0 -3.74707,-5.7375 -7.17501,-12.75 -3.42795,-7.0125 -7.79288,-15.42225 -9.69984,-18.68833 -3.67109,-6.28751 -18.57352,-22.56167 -20.65998,-22.56167 -0.8736,0 -1.43488,3.5755 -1.92298,12.25 -0.67359,11.97113 -2.06298,26.64776 -3.20417,33.84691 l -0.57018,3.59691 9.77089,0.58294 c 10.45663,0.62385 14.93577,2.52253 14.93577,6.33116 0,1.75715 -1.04158,1.91176 -14.60605,2.16799 -11.17771,0.21115 -14.86427,-0.0352 -15.70616,-1.04964 z m 41.61748,-92.8693 c 0.26848,-2.30939 -0.86378,-3.43535 -9.39318,-9.34091 -10.64662,-7.371472 -22.83564,-13.891592 -24.71318,-13.219502 -0.6594,0.23604 4.2806,5.98457 10.97778,12.774522 12.15114,12.31946 12.18238,12.3423 14.89363,10.89129 2.45375,-1.31321 2.82412,-1.28288 3.82331,0.31307 1.56206,2.49498 4.04967,1.69514 4.41164,-1.41847 z M 644.68769,62.933569 c 4.89752,-1.23321 11.7832,-6.606606 14.02756,-10.94673 3.62754,-7.014889 0.272,-19.407227 -6.97885,-25.773557 -4.65941,-4.091013 -7.41584,-5.175734 -13.15231,-5.175734 -10.89068,0 -19.39506,8.98118 -19.39506,20.482459 0,6.690676 1.97825,11.835256 6.30068,16.385406 5.55751,5.850291 10.64317,7.182281 19.19798,5.028156 z m 65.19194,42.469051 c -2.73397,-3.62452 0.38199,-6.392392 3.27375,-2.90803 0.95081,1.14566 0.92228,1.86673 -0.13349,3.37405 -1.30455,1.8625 -1.39384,1.84925 -3.14026,-0.46602 z m 43.90596,-48.208841 c -0.34605,-0.559919 -0.1419,-1.31919 0.45366,-1.687268 1.53748,-0.950218 2.52947,0.35135 1.24598,1.634836 -0.71818,0.71818 -1.27752,0.735435 -1.69964,0.05243 z m 56.40344,-1.156231 c 0,-1.1 0.43417,-2 0.96482,-2 0.53065,0 1.44648,0.9 2.03518,2 0.90739,1.69548 0.76049,2 -0.96482,2 -1.36851,0 -2.03518,-0.655141 -2.03518,-2 z m -7,-7 c -0.90129,-0.58246 -1.02463,-0.975486 -0.30902,-0.984687 0.65504,-0.0084 1.4691,0.434687 1.80902,0.984687 0.7673,1.241525 0.42112,1.241525 -1.5,0 z m -18.36052,-0.693853 c -1.12618,-1.126184 -0.68589,-2.306147 0.86052,-2.306147 0.825,0 1.5,0.423442 1.5,0.940983 0,1.260978 -1.56159,2.164095 -2.36052,1.365164 z"
         style="fill:#b7b7b7;fill-opacity:1;stroke-width:1.83817255" />
      <path
         inkscape:connector-curvature="0"
         id="path883"
         d="m 640.18903,203.21369 c 0,-1.00313 0.65249,-6.29063 1.44998,-11.75 3.7969,-25.99252 2.85771,-46.69662 -2.96787,-65.42614 -4.7166,-15.16406 -7.46083,-29.550732 -8.07368,-42.326379 -0.29481,-6.145493 -0.71319,-12.075796 -0.92974,-13.178452 -0.21655,-1.102657 -2.61743,-3.664976 -5.33528,-5.694044 -8.89153,-6.638146 -12.88614,-18.998528 -9.69144,-29.98791 2.1046,-7.239582 4.98513,-11.471074 10.39896,-15.276058 3.9657,-2.787199 4.99324,-3.035734 12.48521,-3.01985 6.43588,0.01365 9.03055,0.477414 12.25854,2.191085 12.02643,6.38457 18.63568,23.441099 13.3996,34.580393 -1.23213,2.621244 -4.06169,6.324994 -6.28791,8.230556 -3.9497,3.380797 -13.01677,7.480657 -16.54388,7.480657 -2.26779,0 -4.16249,1.908923 -4.16249,4.193728 0,2.125152 4.4886,5.495723 16.38831,12.306272 4.80493,2.75 13.64732,8.2625 19.64975,12.25 6.00243,3.987502 11.31931,7.250002 11.81528,7.250002 0.49598,0 1.46197,-0.675 2.14666,-1.5 1.83524,-2.21133 4.91772,-1.82378 5.96532,0.75 0.5037,1.2375 1.80367,3.55169 2.88882,5.14265 1.54765,2.26905 1.75227,3.37708 0.94915,5.13973 -1.09774,2.40929 -4.69754,4.46762 -7.81337,4.46762 -1.33463,0 -2.76159,1.71924 -4.70295,5.66621 -2.53796,5.15994 -3.26235,5.83865 -8.10746,7.59618 -2.92626,1.06148 -5.50157,1.74889 -5.72289,1.52756 -0.22133,-0.22132 0.068,-2.10595 0.64286,-4.18806 0.5749,-2.08211 0.7652,-5.44336 0.4229,-7.46945 -0.64568,-3.82171 -0.11205,-3.2864 -24.30602,-24.382442 -8.44975,-7.36779 -9.69837,-7.43834 -8.84915,-0.5 2.07596,16.961012 8.89482,31.975322 20.47179,45.076452 8.07543,9.13859 20.54885,26.5504 24.12296,33.67355 1.51782,3.025 3.53348,7.8625 4.47923,10.75 0.94575,2.8875 2.2865,5.25 2.97945,5.25 0.69296,0 3.91929,-1.30696 7.16964,-2.90435 9.02073,-4.43326 19.40972,-6.06752 19.40972,-3.05329 0,0.91243 -24.7747,13.95764 -26.50753,13.95764 -0.59409,0 -4.37812,-6.63419 -8.40894,-14.74265 -4.03083,-8.10845 -9.26965,-17.44595 -11.64184,-20.75 -5.87511,-8.18303 -16.9008,-18.92889 -18.70962,-18.23478 -1.1059,0.42438 -1.59402,3.84266 -2.13362,14.94188 -0.38482,7.91539 -1.31067,19.08993 -2.05745,24.83231 -0.74677,5.74239 -1.14744,10.78102 -0.89037,11.19697 0.25707,0.41595 4.15335,0.78167 8.65839,0.81271 10.0755,0.0694 15.06838,1.5803 15.51053,4.69356 0.31926,2.24793 0.3057,2.25 -14.75,2.25 -13.91778,0 -15.06955,-0.1394 -15.06955,-1.82386 z m 42.02021,-89.21391 c 0.59983,-1.12078 0.83121,-2.85501 0.51419,-3.85386 -0.6354,-2.00196 -20.00989,-15.373352 -28.25116,-19.497662 -5.26499,-2.63485 -8.28324,-3.29045 -8.28324,-1.79923 0,1.2596 24.04983,26.188522 25.26501,26.188522 0.59263,0 1.86463,-0.71233 2.82666,-1.58296 1.60687,-1.4542 1.83984,-1.41353 2.86393,0.5 1.41737,2.64838 3.66072,2.6684 5.06461,0.0452 z M 648.89508,61.869068 c 12.56506,-5.877312 15.73064,-20.548062 6.9249,-32.093156 -6.18332,-8.106889 -13.3177,-11.027832 -21.59216,-8.840226 -16.62881,4.396332 -21.49799,26.049725 -8.54303,37.991184 2.41231,2.223598 5.65013,4.322516 7.19513,4.664262 1.54501,0.341747 3.25911,0.770453 3.80911,0.95268 1.89511,0.627891 8.01017,-0.712117 12.20605,-2.674744 z m 61.49395,42.968482 c -0.66,-0.66 -1.2,-1.56 -1.2,-2 0,-1.19165 2.77866,-0.96715 3.55385,0.28713 1.02966,1.66603 -0.95586,3.11086 -2.35385,1.71287 z m -10.15018,-1.23997 c -0.65728,-0.79198 -2.10423,-1.57948 -3.21545,-1.75 -1.91267,-0.2935 -1.88214,-0.43928 0.57262,-2.734342 l 2.59301,-2.42432 v 2.7057 c 0,1.488142 0.675,2.964722 1.5,3.281302 1.61179,0.6185 2.07122,2.36163 0.62244,2.36163 -0.48265,0 -1.41533,-0.64798 -2.07262,-1.43997 z"
         style="fill:#b7b7b7;fill-opacity:1;stroke-width:1.83817255" />
      <path
         inkscape:connector-curvature="0"
         id="path881"
         d="m 643.43903,204.218 c -2.59005,-0.36785 -2.74267,-1.70064 -1.22308,-10.68045 3.97741,-23.50387 3.04727,-47.8693 -2.53873,-66.5031 -5.38031,-17.94766 -7.50164,-29.372192 -8.16946,-43.996902 l -0.61645,-13.5 -3.5161,-3 c -7.46216,-6.366855 -8.9333,-8.208189 -11.02539,-13.799801 -2.69512,-7.203354 -2.73326,-12.723177 -0.14,-20.260632 3.48886,-10.14053 10.62254,-15.381174 20.97921,-15.412028 9.08606,-0.02707 12.92511,1.54253 18.62986,7.616818 11.95002,12.72411 10.96848,29.471866 -2.24001,38.220808 -4.35638,2.885547 -6.65371,3.758381 -14.5732,5.536878 -2.83579,0.636839 -4.324,3.424082 -3.39353,6.355714 0.50159,1.580401 12.75704,9.631873 27.57688,18.117213 3.025,1.73201 8.75293,5.44551 12.72873,8.252222 7.27065,5.13271 7.91155,5.25402 12.00898,2.27313 2.09212,-1.52202 2.28275,-1.50668 2.92999,0.23587 0.38076,1.02509 1.7493,3.48061 3.0412,5.45669 2.79188,4.27043 2.26891,6.30663 -2.03076,7.90675 -1.74798,0.65051 -4.13282,1.55572 -5.29966,2.01158 -1.16683,0.45586 -2.42467,2.03669 -2.79519,3.51297 -1.18179,4.70862 -3.59716,7.29254 -8.32164,8.90234 -2.53045,0.8622 -4.7373,1.43116 -4.90413,1.26434 -0.16682,-0.16683 0.15372,-1.95853 0.71231,-3.98158 1.62748,-5.89426 -0.22975,-10.78419 -5.82767,-15.3437 -2.60819,-2.12438 -5.64216,-4.81213 -6.74216,-5.97279 -4.18197,-4.41258 -18.97292,-16.392792 -20.23878,-16.392792 -2.42143,0 -2.48894,2.89051 -0.31927,13.670702 2.96873,14.7504 9.28597,27.11283 19.84191,38.8293 5.93941,6.59241 18.28205,23.4045 22.42061,30.53945 1.44818,2.4967 3.61937,7.59242 4.82486,11.32381 1.20549,3.7314 2.84223,7.03396 3.6372,7.33902 0.79498,0.30506 3.55772,-0.58539 6.13944,-1.97878 7.74722,-4.18128 20.19403,-7.21155 20.19403,-4.91639 0,0.96303 -23.5052,13.20582 -25.27301,13.16356 -0.67485,-0.0161 -4.60199,-6.81097 -8.72699,-15.09964 -4.125,-8.28868 -8.97585,-17.16298 -10.77968,-19.72067 -4.81311,-6.82467 -17.40748,-19.26097 -19.16333,-18.92282 -0.83361,0.16054 -1.83305,1.41252 -2.22097,2.78218 -0.73326,2.58894 -3.1025,35.37622 -3.25104,44.99028 l -0.085,5.5 10.2762,0.56192 c 7.69853,0.42096 10.69367,0.97938 11.94048,2.22619 0.91535,0.91535 1.46606,1.85983 1.22379,2.09884 -0.55191,0.54451 -22.63995,1.22674 -25.69047,0.7935 z m 39.49922,-90.34309 c 2.16217,-4.51122 2.16716,-4.50591 -15.24922,-16.221832 -7.72668,-5.19771 -20.5203,-11.72102 -21.63559,-11.03173 -0.47542,0.29383 -0.86441,1.26234 -0.86441,2.15225 0,1.8354 24.80125,27.263952 26.59138,27.263952 0.64005,0 1.73208,-0.68482 2.42674,-1.52183 1.11429,-1.34264 1.43428,-1.27729 2.71766,0.55499 1.86683,2.66527 4.40476,2.16059 6.01344,-1.1958 z M 646.56611,63.806425 c 2.37725,-0.712241 6.07475,-3.1357 8.77284,-5.75 7.55841,-7.323675 8.41523,-15.110288 2.86075,-25.997952 -3.40931,-6.682815 -12.54429,-13.020925 -18.76677,-13.020925 -11.18567,0 -22.2439,11.147365 -22.2439,22.4232 0,8.501393 6.44109,19.117033 13.45238,22.171028 3.86796,1.684815 10.63646,1.759046 15.9247,0.174649 z"
         style="fill:#b7b7b7;fill-opacity:1;stroke-width:1.83817255" />
    </g>
  </g>
</svg>
